<?xml version="1.0" encoding="utf-8"?>
<!-- Generator: Adobe Illustrator 16.0.0, SVG Export Plug-In . SVG Version: 6.00 Build 0)  -->
<!DOCTYPE svg PUBLIC "-//W3C//DTD SVG 1.1//EN" "http://www.w3.org/Graphics/SVG/1.1/DTD/svg11.dtd">
<svg version="1.1" id="Layer_1" xmlns="http://www.w3.org/2000/svg" xmlns:xlink="http://www.w3.org/1999/xlink" x="0px" y="0px"
	 width="60px" height="60px" viewBox="0 0 60 60" enable-background="new 0 0 60 60" xml:space="preserve">
<path fill="#757575" d="M6.5,10.75h4.25V6.5H6.5V10.75z M12.875,23.5h4.25v-4.25h-4.25V23.5z M6.5,23.5h4.25v-4.25H6.5V23.5z
	 M6.5,17.126h4.25v-4.251H6.5V17.126z M12.875,17.126h4.25v-4.251h-4.25V17.126z M19.25,6.5v4.25h4.25V6.5H19.25z M12.875,10.75
	h4.25V6.5h-4.25V10.75z M19.25,17.126h4.25v-4.251h-4.25V17.126z M19.25,23.5h4.25v-4.25h-4.25V23.5z"/>
<path fill="#272626" d="M36.501,10.75h4.25V6.5h-4.25V10.75z M42.876,23.5h4.25v-4.25h-4.25V23.5z M36.501,23.5h4.25v-4.25h-4.25
	V23.5z M36.501,17.125h4.25v-4.251h-4.25V17.125z M42.876,17.125h4.25v-4.251h-4.25V17.125z M49.251,6.5v4.25h4.25V6.5H49.251z
	 M42.876,10.75h4.25V6.5h-4.25V10.75z M49.251,17.125h4.25v-4.251h-4.25V17.125z M49.251,23.5h4.25v-4.25h-4.25V23.5z"/>
<path fill="none" d="M30.001,0h35v35h-35V0z"/>
<g>
	<circle fill="#757575" cx="15" cy="45" r="10"/>
	<path fill="#FFFFFF" d="M15,49.191c0.566,0,1.032-0.463,1.032-1.029h-2.064C13.968,48.729,14.429,49.191,15,49.191z M18.098,46.613
		v-2.581c0-1.583-0.848-2.911-2.322-3.263v-0.351c0-0.429-0.346-0.774-0.774-0.774c-0.428,0-0.774,0.347-0.774,0.774v0.351
		c-1.481,0.352-2.322,1.674-2.322,3.263v2.581l-1.032,1.031v0.518h8.258v-0.518L18.098,46.613z"/>
</g>
<g>
	<circle fill="#272626" cx="45.001" cy="45" r="10"/>
	<path fill="#FFFFFF" d="M45.001,49.191c0.566,0,1.032-0.463,1.032-1.029h-2.064C43.969,48.729,44.428,49.191,45.001,49.191z
		 M48.099,46.613v-2.581c0-1.583-0.847-2.911-2.322-3.263v-0.351c0-0.429-0.346-0.774-0.774-0.774c-0.428,0-0.774,0.347-0.774,0.774
		v0.351c-1.481,0.352-2.322,1.674-2.322,3.263v2.581l-1.032,1.031v0.518h8.258v-0.518L48.099,46.613z"/>
</g>
</svg>
