<?xml version="1.0" encoding="utf-8"?>
<!-- Generator: Adobe Illustrator 16.0.0, SVG Export Plug-In . SVG Version: 6.00 Build 0)  -->
<!DOCTYPE svg PUBLIC "-//W3C//DTD SVG 1.1//EN" "http://www.w3.org/Graphics/SVG/1.1/DTD/svg11.dtd">
<svg version="1.1" id="Слой_1" xmlns="http://www.w3.org/2000/svg" xmlns:xlink="http://www.w3.org/1999/xlink" x="0px" y="0px"
	 width="100px" height="100px" viewBox="0 0 100 100" enable-background="new 0 0 100 100" xml:space="preserve">
<g id="Слой_2">
</g>
<image display="none" overflow="visible" enable-background="new    " width="1152" height="864" xlink:href="336311A5E5A9693E.png"  transform="matrix(4.0498 0 0 4.0498 -1911.7927 -1154.2756)">
</image>
<g id="Слой_3">
</g>
<g>
	<circle fill="#FFFFFF" cx="50" cy="49.999" r="42.52"/>
	<g>
		<g>
			<defs>
				<path id="SVGID_1_" d="M78.637,44.545h-3.409H64.046H50.682v11.591h16.091c-1.5,7.364-7.772,11.591-16.091,11.591
					c-9.819,0-17.728-7.909-17.728-17.728c0-9.819,7.909-17.728,17.728-17.728c4.227,0,8.045,1.5,11.045,3.955l8.728-8.728
					c-5.318-4.637-12.137-7.5-19.773-7.5c-16.637,0-30.001,13.364-30.001,30s13.364,30,30.001,30c15,0,28.637-10.909,28.637-30
					C79.319,48.227,79.046,46.318,78.637,44.545z"/>
			</defs>
			<clipPath id="SVGID_2_">
				<use xlink:href="#SVGID_1_"  overflow="visible"/>
			</clipPath>
			<polygon clip-path="url(#SVGID_2_)" fill="#FBBC05" points="17.954,67.727 17.954,32.272 41.136,50 			"/>
		</g>
		<g>
			<defs>
				<path id="SVGID_3_" d="M78.637,44.545h-3.409H64.046H50.682v11.591h16.091c-1.5,7.364-7.772,11.591-16.091,11.591
					c-9.819,0-17.728-7.909-17.728-17.728c0-9.819,7.909-17.728,17.728-17.728c4.227,0,8.045,1.5,11.045,3.955l8.728-8.728
					c-5.318-4.637-12.137-7.5-19.773-7.5c-16.637,0-30.001,13.364-30.001,30s13.364,30,30.001,30c15,0,28.637-10.909,28.637-30
					C79.319,48.227,79.046,46.318,78.637,44.545z"/>
			</defs>
			<clipPath id="SVGID_4_">
				<use xlink:href="#SVGID_3_"  overflow="visible"/>
			</clipPath>
			<polygon clip-path="url(#SVGID_4_)" fill="#EA4335" points="17.954,32.272 41.136,50 50.682,41.681 83.41,36.363 83.41,17.272 
				17.954,17.272 			"/>
		</g>
		<g>
			<defs>
				<path id="SVGID_5_" d="M78.637,44.545h-3.409H64.046H50.682v11.591h16.091c-1.5,7.364-7.772,11.591-16.091,11.591
					c-9.819,0-17.728-7.909-17.728-17.728c0-9.819,7.909-17.728,17.728-17.728c4.227,0,8.045,1.5,11.045,3.955l8.728-8.728
					c-5.318-4.637-12.137-7.5-19.773-7.5c-16.637,0-30.001,13.364-30.001,30s13.364,30,30.001,30c15,0,28.637-10.909,28.637-30
					C79.319,48.227,79.046,46.318,78.637,44.545z"/>
			</defs>
			<clipPath id="SVGID_6_">
				<use xlink:href="#SVGID_5_"  overflow="visible"/>
			</clipPath>
			<polygon clip-path="url(#SVGID_6_)" fill="#34A853" points="17.954,67.727 58.864,36.363 69.637,37.727 83.41,17.272 
				83.41,82.728 17.954,82.728 			"/>
		</g>
		<g>
			<defs>
				<path id="SVGID_7_" d="M78.637,44.545h-3.409H64.046H50.682v11.591h16.091c-1.5,7.364-7.772,11.591-16.091,11.591
					c-9.819,0-17.728-7.909-17.728-17.728c0-9.819,7.909-17.728,17.728-17.728c4.227,0,8.045,1.5,11.045,3.955l8.728-8.728
					c-5.318-4.637-12.137-7.5-19.773-7.5c-16.637,0-30.001,13.364-30.001,30s13.364,30,30.001,30c15,0,28.637-10.909,28.637-30
					C79.319,48.227,79.046,46.318,78.637,44.545z"/>
			</defs>
			<clipPath id="SVGID_8_">
				<use xlink:href="#SVGID_7_"  overflow="visible"/>
			</clipPath>
			<polygon clip-path="url(#SVGID_8_)" fill="#4285F4" points="83.41,82.728 41.136,50 35.682,45.908 83.41,32.272 			"/>
		</g>
	</g>
</g>
</svg>
