<?xml version="1.0" encoding="utf-8"?>
<!-- Generator: Adobe Illustrator 16.0.0, SVG Export Plug-In . SVG Version: 6.00 Build 0)  -->
<!DOCTYPE svg PUBLIC "-//W3C//DTD SVG 1.1//EN" "http://www.w3.org/Graphics/SVG/1.1/DTD/svg11.dtd">
<svg version="1.1" id="Layer_1" xmlns="http://www.w3.org/2000/svg" xmlns:xlink="http://www.w3.org/1999/xlink" x="0px" y="0px"
	 width="48px" height="48px" viewBox="0 0 48 48" enable-background="new 0 0 48 48" xml:space="preserve">
<path fill="#4285F4" d="M24,28c3.32,0,5.98-2.68,5.98-6L30,10c0-3.32-2.68-6-6-6c-3.32,0-6,2.68-6,6v12C18,25.32,20.68,28,24,28z"/>
<path d="M15.323,32.557c-0.001-0.001-0.002-0.002-0.003-0.002C15.32,32.555,15.322,32.556,15.323,32.557z"/>
<path d="M20.862,35.217c-0.078-0.018-0.154-0.04-0.231-0.059C20.708,35.178,20.785,35.199,20.862,35.217z"/>
<path d="M27.507,35.122c-0.14,0.036-0.278,0.076-0.421,0.108C27.228,35.198,27.367,35.159,27.507,35.122z"/>
<path d="M14.715,32.041c-0.175-0.155-0.352-0.308-0.519-0.472C14.365,31.731,14.538,31.887,14.715,32.041z"/>
<path d="M32.822,32.448c-0.18,0.146-0.37,0.279-0.558,0.417C32.453,32.729,32.641,32.594,32.822,32.448z"/>
<path fill="#34A853" d="M21.637,35.368c0.122,0.021,0.241,0.053,0.363,0.071V42h4v-6.561c0.132-0.02,0.26-0.052,0.39-0.075
	c-0.778,0.134-1.573,0.219-2.39,0.219C23.193,35.583,22.407,35.5,21.637,35.368z"/>
<path fill="#EA4335" d="M33.044,32.26C36.031,29.771,38,26.106,38,22h-0.021C37.857,26.112,35.973,29.776,33.044,32.26z"/>
<path fill="#F4B400" d="M10,22c0,3.642,1.56,6.938,4.004,9.376c-2.383-2.432-3.875-5.729-3.983-9.376H10z"/>
<path fill="#EA4335" d="M33.044,32.26c-0.074,0.062-0.146,0.128-0.222,0.188C32.897,32.388,32.97,32.323,33.044,32.26z"/>
<path fill="#EA4335" d="M14.196,31.569c-0.066-0.062-0.128-0.129-0.192-0.193C14.067,31.441,14.131,31.506,14.196,31.569z"/>
<path fill="#EA4335" d="M27.086,35.23c-0.229,0.053-0.463,0.093-0.696,0.134C26.624,35.324,26.856,35.282,27.086,35.23z"/>
<path fill="#EA4335" d="M32.265,32.865c-1.423,1.029-3.034,1.806-4.758,2.257C29.249,34.672,30.855,33.899,32.265,32.865z"/>
<path fill="#EA4335" d="M15.319,32.555c-0.208-0.163-0.405-0.34-0.604-0.514C14.913,32.217,15.112,32.39,15.319,32.555z"/>
<path fill="#EA4335" d="M20.631,35.158c-1.941-0.493-3.752-1.39-5.308-2.602C16.862,33.776,18.665,34.671,20.631,35.158z"/>
<path fill="#EA4335" d="M21.637,35.368c-0.259-0.046-0.519-0.091-0.774-0.151C21.118,35.275,21.376,35.324,21.637,35.368z"/>
<path fill="#EA4335" d="M34.6,22c0,6-5.08,10.2-10.6,10.2c-2.085,0-4.106-0.601-5.816-1.67l-2.37,2.37
	c1.443,1.031,3.072,1.814,4.816,2.258c0.077,0.019,0.153,0.041,0.231,0.059c0.255,0.061,0.515,0.105,0.774,0.151
	c0.77,0.132,1.556,0.215,2.363,0.215c0.816,0,1.611-0.085,2.39-0.219c0.233-0.041,0.467-0.081,0.696-0.134
	c0.143-0.032,0.281-0.072,0.421-0.108c1.724-0.451,3.335-1.228,4.758-2.257c0.188-0.138,0.378-0.271,0.558-0.417
	c0.075-0.061,0.147-0.126,0.222-0.188c2.929-2.483,4.813-6.147,4.935-10.26H34.6z"/>
<path fill="#F4B400" d="M13.4,22h-3.379c0.108,3.647,1.6,6.944,3.983,9.376c0.064,0.064,0.126,0.131,0.192,0.193
	c0.167,0.164,0.344,0.316,0.519,0.472c0.199,0.174,0.396,0.351,0.604,0.514c0.001,0,0.002,0.001,0.003,0.002
	c0.158,0.123,0.329,0.228,0.492,0.344l2.37-2.37C15.368,28.769,13.4,25.733,13.4,22z"/>
</svg>
